HIERARCHY
ROOT Junyuan_V1:Solving:Hips
{
	OFFSET 0.000000 0.000000 0.000000
	CHANNELS 6 Xposition Yposition Zposition Xrotation Yrotation Zrotation
	JOINT Junyuan_V1:Solving:Spine
	{
		OFFSET 0.000000 -11.180205 2.228564
		CHANNELS 6 Xposition Yposition Zposition Xrotation Yrotation Zrotation
		JOINT Junyuan_V1:Solving:Spine1
		{
			OFFSET 0.000000 -8.682996 1.531049
			CHANNELS 6 Xposition Yposition Zposition Xrotation Yrotation Zrotation
			JOINT Junyuan_V1:Solving:Spine2
			{
				OFFSET 0.000000 -8.783394 0.768450
				CHANNELS 6 Xposition Yposition Zposition Xrotation Yrotation Zrotation
				JOINT Junyuan_V1:Solving:Spine3
				{
					OFFSET 0.000000 -8.816944 0.000000
					CHANNELS 6 Xposition Yposition Zposition Xrotation Yrotation Zrotation
					JOINT Junyuan_V1:Solving:Neck
					{
						OFFSET 0.000000 -11.336071 -1.133605
						CHANNELS 6 Xposition Yposition Zposition Xrotation Yrotation Zrotation
						JOINT Junyuan_V1:Solving:Neck1
						{
							OFFSET 0.000000 -7.643246 -0.668695
							CHANNELS 6 Xposition Yposition Zposition Xrotation Yrotation Zrotation
							JOINT Junyuan_V1:Solving:Head
							{
								OFFSET 0.000000 -7.555870 -1.332303
								CHANNELS 6 Xposition Yposition Zposition Xrotation Yrotation Zrotation
								JOINT Junyuan_V1:Solving:HeadEnd
								{
									OFFSET 0.000000 -9.728081 0.000002
									CHANNELS 6 Xposition Yposition Zposition Xrotation Yrotation Zrotation
									End Site
									{
										OFFSET 0.000000 -9.728081 0.000002
									}
								}
							}
						}
					}
					JOINT Junyuan_V1:Solving:RightShoulder
					{
						OFFSET 0.000000 -8.097195 -5.270916
						CHANNELS 6 Xposition Yposition Zposition Xrotation Yrotation Zrotation
						JOINT Junyuan_V1:Solving:RightArm
						{
							OFFSET -20.762394 -0.000008 0.000000
							CHANNELS 6 Xposition Yposition Zposition Xrotation Yrotation Zrotation
							JOINT Junyuan_V1:Solving:RightForeArm
							{
								OFFSET -29.048946 -0.000008 0.000000
								CHANNELS 6 Xposition Yposition Zposition Xrotation Yrotation Zrotation
								JOINT Junyuan_V1:Solving:RightHand
								{
									OFFSET -22.031235 -0.000008 0.000000
									CHANNELS 6 Xposition Yposition Zposition Xrotation Yrotation Zrotation
									JOINT Junyuan_V1:Solving:RightHandThumb1
									{
										OFFSET -3.579254 2.890213 -2.661497
										CHANNELS 6 Xposition Yposition Zposition Xrotation Yrotation Zrotation
										End Site
										{
											OFFSET -5.229485 0.000000 -5.277840
										}
									}
									JOINT Junyuan_V1:Solving:RightHandMiddle1
									{
										OFFSET -9.544678 -0.000004 0.061184
										CHANNELS 6 Xposition Yposition Zposition Xrotation Yrotation Zrotation
										End Site
										{
											OFFSET -7.429878 -0.000004 0.000000
										}
									}
								}
							}
						}
					}
					JOINT Junyuan_V1:Solving:LeftShoulder
					{
						OFFSET 0.000000 -8.097195 -5.270916
						CHANNELS 6 Xposition Yposition Zposition Xrotation Yrotation Zrotation
						JOINT Junyuan_V1:Solving:LeftArm
						{
							OFFSET 20.762394 -0.000008 0.000000
							CHANNELS 6 Xposition Yposition Zposition Xrotation Yrotation Zrotation
							JOINT Junyuan_V1:Solving:LeftForeArm
							{
								OFFSET 29.048946 -0.000008 0.000000
								CHANNELS 6 Xposition Yposition Zposition Xrotation Yrotation Zrotation
								JOINT Junyuan_V1:Solving:LeftHand
								{
									OFFSET 22.031235 -0.000008 0.000000
									CHANNELS 6 Xposition Yposition Zposition Xrotation Yrotation Zrotation
									JOINT Junyuan_V1:Solving:LeftHandThumb1
									{
										OFFSET 3.579254 2.890213 -2.661497
										CHANNELS 6 Xposition Yposition Zposition Xrotation Yrotation Zrotation
										End Site
										{
											OFFSET 5.229485 0.000000 -5.277840
										}
									}
									JOINT Junyuan_V1:Solving:LeftHandMiddle1
									{
										OFFSET 9.544678 -0.000004 0.061184
										CHANNELS 6 Xposition Yposition Zposition Xrotation Yrotation Zrotation
										End Site
										{
											OFFSET 7.429878 -0.000004 0.000000
										}
									}
								}
							}
						}
					}
				}
			}
		}
	}
	JOINT Junyuan_V1:Solving:RightUpLeg
	{
		OFFSET -10.825166 0.000000 0.000000
		CHANNELS 6 Xposition Yposition Zposition Xrotation Yrotation Zrotation
		JOINT Junyuan_V1:Solving:RightLeg
		{
			OFFSET 0.000000 43.678444 -0.000006
			CHANNELS 6 Xposition Yposition Zposition Xrotation Yrotation Zrotation
			JOINT Junyuan_V1:Solving:RightFoot
			{
				OFFSET 0.000000 36.488441 -0.000006
				CHANNELS 6 Xposition Yposition Zposition Xrotation Yrotation Zrotation
				JOINT Junyuan_V1:Solving:RightForeFoot
				{
					OFFSET 0.000000 3.967834 -0.000000
					CHANNELS 6 Xposition Yposition Zposition Xrotation Yrotation Zrotation
					JOINT Junyuan_V1:Solving:RightToeBase
					{
						OFFSET 0.000000 0.000000 -15.539299
						CHANNELS 6 Xposition Yposition Zposition Xrotation Yrotation Zrotation
						JOINT Junyuan_V1:Solving:RightToeBaseEnd
						{
							OFFSET 0.000000 0.000000 -3.486985
							CHANNELS 6 Xposition Yposition Zposition Xrotation Yrotation Zrotation
							End Site
							{
								OFFSET 0.000000 -3.486992 0.000000
							}
						}
					}
				}
			}
		}
	}
	JOINT Junyuan_V1:Solving:LeftUpLeg
	{
		OFFSET 10.825166 0.000000 0.000000
		CHANNELS 6 Xposition Yposition Zposition Xrotation Yrotation Zrotation
		JOINT Junyuan_V1:Solving:LeftLeg
		{
			OFFSET 0.000000 43.678444 -0.000006
			CHANNELS 6 Xposition Yposition Zposition Xrotation Yrotation Zrotation
			JOINT Junyuan_V1:Solving:LeftFoot
			{
				OFFSET 0.000000 36.488441 -0.000006
				CHANNELS 6 Xposition Yposition Zposition Xrotation Yrotation Zrotation
				JOINT Junyuan_V1:Solving:LeftForeFoot
				{
					OFFSET 0.000000 3.967834 -0.000000
					CHANNELS 6 Xposition Yposition Zposition Xrotation Yrotation Zrotation
					JOINT Junyuan_V1:Solving:LeftToeBase
					{
						OFFSET 0.000000 0.000000 -15.539299
						CHANNELS 6 Xposition Yposition Zposition Xrotation Yrotation Zrotation
						JOINT Junyuan_V1:Solving:LeftToeBaseEnd
						{
							OFFSET 0.000000 0.000000 -3.974441
							CHANNELS 6 Xposition Yposition Zposition Xrotation Yrotation Zrotation
							End Site
							{
								OFFSET 0.000000 -3.974442 0.000000
							}
						}
					}
				}
			}
		}
	}
}
MOTION
Frames: 5
Frame Time: 0.041667
-26.335081 53.508415 -7.488418 -66.659224 -6.378726 -179.116793 0.000003 -11.180207 2.228578 11.945409 -1.230763 0.549617 0.000005 -8.682997 1.531046 8.024864 0.121941 -0.895866 0.000000 -8.783394 0.768453 18.957793 -8.365325 6.375644 -0.000002 -8.816946 -0.000009 -3.201308 -1.571219 4.042304 -0.000002 -11.336090 -1.133611 -28.234793 -11.492072 4.255330 -0.000002 -7.643245 -0.668701 30.239266 -0.103051 -5.668761 0.000001 -7.555864 -1.332301 2.303747 0.014028 -0.194213 -0.000003 -9.728088 -0.000010 0.000003 -0.000002 -0.000000 -0.000005 -8.097202 -5.270921 0.000011 7.428769 25.510982 -20.762392 -0.000012 -0.000013 -87.188280 -50.769438 -96.564552 -29.048941 -0.000015 -0.000007 32.928581 -58.871456 29.003053 -22.031239 -0.000014 -0.000001 -1.039507 2.956400 19.381802 -3.579247 2.890214 -2.661497 -0.000004 -0.000010 0.000009 -9.544673 0.000002 0.061187 0.000002 -0.000005 -0.000004 -0.000004 -8.097195 -5.270917 -0.000002 -16.448480 -13.917482 20.762388 -0.000009 -0.000008 -23.776370 22.772512 94.232466 29.048948 -0.000011 -0.000006 -64.220492 21.359316 37.020028 22.031231 -0.000022 -0.000014 6.438318 0.773618 -83.178133 3.579246 2.890202 -2.661484 -0.000000 0.000000 -0.000001 9.544689 -0.000000 0.061185 -0.000000 -0.000007 0.000005 -10.825161 0.000000 0.000003 -115.146457 11.865289 15.380949 0.000001 43.678432 0.000010 101.407839 0.000003 -0.000000 0.000002 36.488422 -0.000010 30.671477 2.155303 -0.082881 0.000002 3.967826 0.000000 0.000000 0.000002 0.000001 -0.000002 0.000006 -15.539301 5.358121 -0.000001 -0.000000 0.000001 -0.000008 -3.486984 -0.000000 0.000002 0.000002 10.825164 -0.000003 0.000016 -114.447825 -16.319957 -24.109424 0.000003 43.678448 0.000008 99.173042 0.000007 0.000001 -0.000002 36.488430 -0.000004 31.523621 11.388517 -3.370366 -0.000001 3.967826 -0.000002 -0.000000 0.000001 0.000001 -0.000002 -0.000016 -15.539298 -1.268602 0.000001 0.000000 -0.000001 -0.000015 -3.974441 0.000001 -0.000001 -0.000001 
-26.290344 53.572899 -7.478645 -66.547325 -6.291861 -179.309760 -0.000002 -11.180195 2.228563 11.938158 -1.262609 0.653544 -0.000002 -8.682996 1.531045 8.072377 0.082432 -0.787400 -0.000001 -8.783394 0.768446 19.173893 -8.750599 5.711612 -0.000001 -8.816944 -0.000003 -3.138627 -1.794940 3.535469 0.000004 -11.336076 -1.133622 -27.872119 -11.563814 5.177370 -0.000002 -7.643244 -0.668707 29.566236 0.004265 -5.583538 0.000003 -7.555869 -1.332306 2.561884 0.029452 -0.233606 0.000000 -9.728088 -0.000007 0.000000 -0.000001 -0.000001 0.000002 -8.097198 -5.270941 0.000009 8.061382 26.074985 -20.762396 -0.000007 0.000004 -86.898311 -50.218775 -96.055020 -29.048946 -0.000023 -0.000009 33.685687 -58.460573 29.600394 -22.031233 -0.000026 -0.000000 -1.057591 3.135126 18.651300 -3.579259 2.890211 -2.661501 0.000001 0.000002 0.000004 -9.544703 0.000003 0.061178 0.000000 0.000005 -0.000004 0.000004 -8.097198 -5.270941 -0.000003 -16.293435 -13.456485 20.762388 -0.000011 0.000002 -23.601338 21.727783 94.399867 29.048944 -0.000010 -0.000009 -65.252793 22.679407 39.911845 22.031231 -0.000027 -0.000001 5.946069 0.869543 -81.711063 3.579265 2.890211 -2.661503 0.000007 0.000000 -0.000006 9.544690 0.000005 0.061181 -0.000000 0.000003 -0.000003 -10.825169 0.000003 -0.000002 -115.082964 11.888192 15.500942 0.000000 43.678436 0.000006 101.343389 0.000007 0.000001 -0.000003 36.488430 -0.000011 30.750283 2.111320 0.335101 -0.000004 3.967827 -0.000000 0.000000 -0.000000 -0.000001 0.000000 -0.000005 -15.539301 5.117094 -0.000001 -0.000002 -0.000000 -0.000007 -3.486982 0.000000 0.000001 -0.000003 10.825160 0.000005 -0.000000 -114.202300 -16.319470 -23.705119 0.000001 43.678436 0.000007 99.026473 0.000006 0.000006 0.000009 36.488434 -0.000012 31.347198 11.400532 -3.215819 -0.000004 3.967842 -0.000000 0.000000 0.000000 0.000001 0.000001 -0.000009 -15.539301 -1.302965 0.000000 0.000002 -0.000007 0.000001 -3.974445 0.000001 -0.000001 0.000003 
-26.222561 53.593502 -7.460369 -66.486967 -6.321840 -179.467906 0.000003 -11.180206 2.228559 11.896461 -1.292417 0.735500 -0.000001 -8.682995 1.531053 8.055268 0.046206 -0.710222 0.000001 -8.783388 0.768457 19.260915 -9.142091 5.115770 0.000002 -8.816954 0.000008 -3.056002 -1.991665 3.186151 -0.000008 -11.336066 -1.133610 -27.549677 -11.651012 5.842511 0.000005 -7.643239 -0.668692 29.201548 0.075504 -5.513791 0.000005 -7.555896 -1.332299 2.688909 0.037589 -0.247922 -0.000003 -9.728088 0.000012 0.000002 0.000002 -0.000001 -0.000005 -8.097191 -5.270918 0.000005 8.473263 26.439201 -20.762392 -0.000004 -0.000001 -86.424487 -49.728210 -95.553622 -29.048935 -0.000020 -0.000008 34.599119 -58.202337 30.382785 -22.031239 -0.000012 -0.000001 -1.208366 3.768147 17.794115 -3.579258 2.890208 -2.661497 0.000003 0.000002 0.000006 -9.544684 -0.000000 0.061186 0.000003 0.000003 0.000001 -0.000007 -8.097187 -5.270919 -0.000009 -16.246254 -13.159206 20.762400 -0.000010 0.000001 -23.356850 21.014967 94.464836 29.048941 -0.000008 -0.000011 -66.152739 24.137281 42.771474 22.031233 -0.000014 -0.000005 5.392094 0.937453 -80.167419 3.579253 2.890197 -2.661509 -0.000001 0.000005 -0.000011 9.544683 -0.000014 0.061172 -0.000000 0.000005 -0.000004 -10.825164 -0.000001 -0.000007 -115.032038 11.871548 15.446988 -0.000001 43.678440 0.000010 101.337160 0.000008 0.000003 -0.000002 36.488426 -0.000013 30.772553 2.018528 0.519583 0.000002 3.967827 0.000001 -0.000001 0.000000 -0.000001 0.000002 -0.000013 -15.539297 5.225216 -0.000001 -0.000007 0.000002 0.000000 -3.486985 0.000000 0.000001 -0.000001 10.825173 -0.000003 -0.000004 -114.099430 -16.157169 -23.440333 0.000004 43.678436 0.000003 99.074052 0.000007 0.000007 -0.000006 36.488445 -0.000004 30.975461 11.388122 -2.989546 -0.000003 3.967834 0.000000 -0.000001 -0.000001 -0.000002 -0.000003 -0.000003 -15.539301 -1.261265 0.000000 -0.000008 -0.000003 0.000001 -3.974438 0.000001 0.000002 0.000002 
-26.231880 53.571983 -7.493614 -66.318056 -6.323220 -179.827898 -0.000003 -11.180208 2.228558 11.948378 -1.269976 0.758268 -0.000003 -8.682994 1.531048 8.108624 0.023738 -0.657185 0.000003 -8.783395 0.768460 19.358708 -9.347998 4.834768 0.000001 -8.816947 -0.000003 -3.147263 -2.064325 2.967675 -0.000007 -11.336075 -1.133578 -27.341080 -12.010994 6.579621 0.000001 -7.643243 -0.668687 29.230109 0.070253 -5.919571 -0.000002 -7.555871 -1.332304 2.719749 0.042997 -0.276012 -0.000010 -9.728081 -0.000012 -0.000001 -0.000001 -0.000000 -0.000005 -8.097202 -5.270888 0.000006 8.507778 26.750753 -20.762398 0.000000 0.000002 -85.711286 -49.036182 -95.211539 -29.048939 -0.000011 -0.000006 35.096401 -58.274163 30.867134 -22.031246 -0.000012 0.000004 -1.479979 4.835232 17.040777 -3.579253 2.890213 -2.661489 0.000002 -0.000002 0.000001 -9.544703 -0.000002 0.061189 0.000001 0.000000 -0.000002 -0.000007 -8.097195 -5.270889 -0.000010 -16.310485 -12.949998 20.762386 -0.000013 0.000003 -23.079721 20.375704 94.377963 29.048946 -0.000006 -0.000010 -67.064658 25.525237 45.520827 22.031250 -0.000005 -0.000002 5.028455 1.087395 -77.830101 3.579260 2.890218 -2.661499 0.000003 -0.000003 -0.000003 9.544686 0.000007 0.061182 -0.000000 -0.000005 0.000001 -10.825164 -0.000004 0.000006 -114.923001 11.612796 15.460987 0.000002 43.678436 0.000013 101.404069 0.000007 0.000003 0.000003 36.488449 -0.000015 30.892362 1.913879 0.761710 -0.000002 3.967826 -0.000001 0.000000 -0.000000 0.000003 0.000001 -0.000014 -15.539297 5.379155 -0.000001 -0.000002 0.000002 -0.000008 -3.486984 0.000000 0.000001 -0.000000 10.825171 -0.000001 -0.000002 -113.813348 -16.235788 -23.185554 -0.000001 43.678444 0.000011 99.171171 0.000004 0.000008 0.000001 36.488426 -0.000004 30.448051 11.389832 -2.760932 0.000004 3.967819 -0.000000 -0.000000 -0.000001 -0.000000 0.000002 -0.000018 -15.539298 -1.653593 0.000001 -0.000000 -0.000006 -0.000008 -3.974445 0.000000 -0.000002 -0.000004 
-26.261347 53.564075 -7.521578 -66.196500 -6.307444 -180.238775 -0.000004 -11.180195 2.228569 11.985419 -1.247829 0.723965 -0.000001 -8.682983 1.531051 8.156714 0.024310 -0.674781 0.000000 -8.783394 0.768448 19.395970 -9.433737 4.749097 -0.000001 -8.816930 -0.000020 -3.248253 -2.068249 2.966895 0.000002 -11.336068 -1.133610 -27.192788 -12.213757 6.680270 -0.000008 -7.643249 -0.668692 29.433402 0.139840 -5.950344 0.000000 -7.555864 -1.332298 2.615685 0.042265 -0.243675 0.000007 -9.728088 0.000002 -0.000002 -0.000001 0.000001 -0.000001 -8.097195 -5.270930 0.000003 8.361419 26.644735 -20.762388 -0.000009 -0.000008 -85.007107 -48.582603 -94.890138 -29.048954 -0.000011 -0.000006 35.539366 -58.399087 31.316472 -22.031229 -0.000021 -0.000007 -1.804451 6.162116 16.356321 -3.579259 2.890215 -2.661494 -0.000001 -0.000002 0.000003 -9.544685 -0.000006 0.061184 0.000000 -0.000004 -0.000000 -0.000001 -8.097183 -5.270930 -0.000011 -16.463748 -13.019909 20.762396 -0.000016 -0.000013 -22.856434 20.123870 94.169676 29.048941 -0.000009 -0.000011 -66.648337 28.171108 47.557245 22.031223 -0.000015 -0.000009 3.910967 0.942990 -76.466358 3.579258 2.890205 -2.661504 0.000007 0.000002 -0.000004 9.544679 -0.000009 0.061180 0.000004 0.000000 0.000001 -10.825169 0.000008 0.000005 -114.876132 11.299706 15.492163 -0.000001 43.678429 0.000006 101.433835 0.000006 0.000004 -0.000003 36.488426 -0.000012 31.064803 1.862930 0.967720 -0.000001 3.967835 -0.000000 -0.000001 -0.000002 -0.000001 -0.000002 -0.000009 -15.539298 5.535221 -0.000003 0.000002 0.000002 -0.000007 -3.486985 0.000000 0.000001 -0.000004 10.825155 0.000005 0.000007 -113.535359 -16.369209 -22.903728 0.000002 43.678444 0.000015 99.224050 0.000002 0.000004 0.000001 36.488422 -0.000005 29.833023 11.402839 -2.382769 -0.000003 3.967827 0.000000 -0.000000 0.000001 0.000004 0.000001 -0.000010 -15.539304 -1.226852 0.000000 -0.000003 -0.000012 -0.000000 -3.974444 -0.000002 -0.000001 -0.000004 
